<?xml version="1.0" standalone="no"?>
<!DOCTYPE svg PUBLIC "-//W3C//DTD SVG 20010904//EN"
 "http://www.w3.org/TR/2001/REC-SVG-20010904/DTD/svg10.dtd">
<svg version="1.0" xmlns="http://www.w3.org/2000/svg"
 width="633.000000pt" height="633.000000pt" viewBox="0 0 633.000000 633.000000"
 preserveAspectRatio="xMidYMid meet">
<metadata>
Created by potrace 1.11, written by Peter Selinger 2001-2013
</metadata>
<g transform="translate(0.000000,633.000000) scale(0.100000,-0.100000)"
fill="#000000" stroke="none">
<path d="M0 3165 l0 -3165 3165 0 3165 0 0 3165 0 3165 -3165 0 -3165 0 0
-3165z m3258 926 c40 -12 109 -40 153 -64 45 -23 99 -52 122 -64 42 -21 42
-21 15 -28 -28 -7 -37 -3 -132 52 -60 36 -157 69 -226 77 -53 7 -49 5 46 -24
72 -21 175 -76 181 -96 14 -42 -294 -67 -518 -43 -66 7 -104 8 -108 1 -4 -6
-45 -5 -116 4 -160 19 -269 17 -387 -7 -57 -11 -150 -23 -208 -26 -119 -6
-140 -14 -140 -48 0 -18 7 -26 26 -31 27 -7 52 -3 224 36 63 14 145 23 246 27
l151 5 184 -48 184 -48 195 0 c177 0 207 2 325 28 99 22 164 29 270 32 94 2
131 1 112 -5 -72 -24 -127 -91 -127 -154 l0 -34 -147 -7 c-228 -9 -976 -12
-990 -3 -7 5 -13 23 -13 41 0 19 -9 54 -20 78 -22 50 -27 52 -143 64 -63 6
-264 -11 -302 -27 -13 -5 8 -8 59 -8 l79 -1 -8 -32 c-5 -18 -9 -49 -9 -68 -1
-32 -4 -35 -41 -42 -50 -9 -152 0 -185 17 -14 7 -34 23 -45 35 -25 28 -12 49
46 72 l44 18 -64 -7 c-48 -4 -65 -3 -72 8 -13 20 -11 80 4 109 12 24 16 25
112 26 129 0 330 45 338 75 4 15 14 19 52 19 30 0 83 13 141 35 190 71 270 85
469 80 115 -2 167 -8 223 -24z m507 -141 c-3 -5 -13 -10 -21 -10 -8 0 -14 5
-14 10 0 6 9 10 21 10 11 0 17 -4 14 -10z m313 -8 c20 -10 69 -24 107 -32 66
-12 125 -34 125 -46 0 -3 -5 -2 -11 2 -18 11 -181 44 -218 44 -58 0 -111 18
-104 35 7 21 56 19 101 -3z m284 -154 c-9 -9 -12 -4 -11 23 0 32 1 33 11 11 8
-17 8 -26 0 -34z m-294 26 c16 -5 21 -12 17 -24 -3 -9 4 -29 15 -43 28 -36
135 -87 181 -87 21 0 40 -4 44 -9 7 -13 -84 -23 -165 -19 l-64 3 -1 35 c-2 49
-28 94 -70 120 -19 12 -35 24 -35 26 0 6 52 5 78 -2z m-1613 -89 c14 -13 25
-31 25 -40 0 -28 -46 -65 -81 -65 -61 0 -89 57 -53 108 22 31 77 30 109 -3z
m1512 -1 c35 -48 1 -104 -64 -104 -30 0 -63 21 -63 40 0 5 -2 15 -5 22 -3 8 4
27 16 42 20 25 27 28 63 23 22 -3 46 -14 53 -23z m333 6 c0 -5 -5 -10 -11 -10
-5 0 -7 5 -4 10 3 6 8 10 11 10 2 0 4 -4 4 -10z m-3506 -671 c39 -46 169 -259
163 -266 -9 -9 -200 -24 -259 -21 -30 2 -53 8 -56 15 -2 7 10 27 27 43 28 29
34 30 79 24 34 -4 52 -2 57 6 9 14 -47 95 -66 95 -8 0 -35 -31 -62 -70 -76
-110 -81 -115 -131 -115 -25 0 -48 5 -51 11 -7 11 99 179 163 257 54 68 92 74
136 21z m1308 30 c113 -24 158 -70 158 -161 0 -94 -52 -141 -180 -161 -118
-18 -216 17 -246 89 -29 70 -8 168 43 202 29 18 106 40 145 41 15 1 51 -4 80
-10z m2966 -3 c15 -8 61 -49 102 -90 98 -99 110 -99 110 -1 0 81 10 96 48 76
17 -9 19 -22 18 -141 -1 -117 -3 -133 -20 -145 -24 -18 -46 -7 -145 75 -41 33
-79 59 -85 57 -6 -2 -13 -35 -16 -73 -5 -74 -14 -83 -66 -70 -24 6 -24 7 -24
146 0 127 2 142 20 160 24 24 24 24 58 6z m-3980 -97 c3 -121 12 -132 112
-137 59 -4 71 -1 89 17 18 18 21 33 21 111 0 99 8 113 56 92 22 -11 24 -17 24
-89 0 -133 -23 -177 -105 -204 -62 -20 -173 -17 -219 5 -62 31 -76 64 -76 182
0 113 7 126 60 122 l35 -3 3 -96z m651 92 c70 -7 81 -17 54 -50 -13 -15 -34
-23 -70 -28 l-53 -6 0 -102 c0 -115 -7 -128 -62 -123 l-33 3 -3 100 c-1 55 -7
104 -13 110 -5 5 -33 12 -61 15 -28 3 -53 10 -55 16 -2 6 8 26 22 43 27 31 27
31 118 30 51 -1 121 -4 156 -8z m1071 -21 c59 -33 83 -78 76 -143 -11 -106
-67 -140 -240 -145 -106 -4 -121 -2 -133 14 -15 20 -18 151 -4 172 5 9 24 12
52 10 l44 -3 5 -50 5 -50 77 -3 c67 -2 80 0 98 18 29 29 26 74 -6 99 -24 19
-40 21 -145 21 -133 0 -139 4 -92 60 l27 32 95 -4 c79 -3 104 -8 141 -28z
m409 22 c30 -4 56 -12 58 -19 3 -7 -7 -24 -21 -38 -22 -22 -33 -25 -98 -25
-78 0 -118 -12 -76 -23 12 -4 50 -7 83 -7 101 0 128 -16 87 -53 -12 -11 -47
-19 -103 -24 -46 -5 -84 -12 -84 -18 0 -5 34 -14 75 -18 121 -13 140 -17 140
-31 0 -7 -9 -21 -20 -31 -25 -23 -270 -36 -295 -15 -12 10 -15 39 -15 149 0
93 4 141 12 149 13 13 161 15 257 4z m475 -8 c15 -6 14 -8 -1 -34 -16 -28 -47
-40 -99 -40 -24 0 -24 -2 -24 -96 0 -113 -8 -134 -53 -134 -51 0 -57 13 -57
121 0 108 0 109 -82 109 -20 0 -39 4 -42 8 -3 5 7 26 21 47 l26 38 147 -6 c81
-4 155 -10 164 -13z m370 -14 c13 -17 52 -74 86 -128 34 -53 67 -105 73 -115
19 -28 -3 -34 -154 -42 -172 -9 -188 -2 -129 56 27 27 33 29 78 23 32 -4 52
-2 56 5 9 13 -50 101 -67 101 -7 0 -39 -41 -72 -91 -35 -53 -69 -92 -81 -95
-31 -8 -87 -1 -91 12 -4 13 119 200 172 262 47 54 90 58 129 12z m314 18 c8
-8 12 -56 12 -149 0 -150 -5 -163 -57 -157 l-28 3 -3 145 c-1 79 0 150 2 157
7 16 58 17 74 1z m182 -100 c3 -58 7 -109 10 -112 3 -3 37 -8 75 -11 96 -9
115 -13 115 -29 0 -34 -37 -48 -143 -53 -58 -3 -116 -3 -131 1 l-26 6 0 149
c0 163 -1 161 60 158 l35 -2 5 -107z m348 100 c8 -8 12 -56 12 -149 0 -150 -5
-163 -57 -157 l-28 3 -3 145 c-1 79 0 150 2 157 7 16 58 17 74 1z m866 -8 c16
-16 -14 -57 -46 -64 -17 -3 -57 -6 -89 -6 -67 0 -102 -13 -119 -45 -29 -54 14
-92 118 -101 l72 -7 0 28 0 27 -67 -3 c-77 -4 -90 9 -52 50 21 22 27 23 106
18 46 -3 88 -9 93 -12 6 -3 10 -42 10 -85 0 -95 9 -90 -166 -93 -118 -2 -121
-1 -157 26 -46 35 -67 74 -67 127 0 23 7 54 15 70 16 31 68 75 100 83 30 9
239 -3 249 -13z m-2249 -511 c638 -6 1166 -14 1173 -18 8 -4 -130 -11 -305
-14 -491 -11 -3758 -21 -3846 -13 -65 7 -78 11 -75 24 3 14 20 18 98 23 175
10 1783 9 2955 -2z"/>
<path d="M2695 4040 c-46 -10 -156 -49 -169 -61 -5 -4 8 -11 28 -15 30 -5 41
-2 60 15 12 11 53 32 92 46 69 24 65 30 -11 15z"/>
<path d="M1998 3001 c-67 -14 -95 -60 -68 -110 13 -26 89 -44 161 -39 50 4 66
9 81 29 22 26 19 82 -4 105 -16 16 -121 25 -170 15z"/>
</g>
</svg>
